HIERARCHY
ROOT hip
{
	OFFSET 0.000000 0.000000 0.000000 
	CHANNELS 6 Xposition Yposition Zposition Xrotation Zrotation Yrotation
	JOINT abdomen
	{
		OFFSET 0.000000 3.402643 0.000000 
		CHANNELS 3 Xrotation Zrotation Yrotation
		JOINT chest
		{
			OFFSET 0.000000 8.438565 -0.680529 
			CHANNELS 3 Xrotation Zrotation Yrotation
			JOINT neck
			{
				OFFSET 0.000000 10.207942 -0.272212 
				CHANNELS 3 Xrotation Zrotation Yrotation
				JOINT head
				{
					OFFSET 0.000000 3.130431 0.000000 
					CHANNELS 3 Xrotation Zrotation Yrotation
					End Site
					{
						OFFSET 0.000000 3.130435 0.000000 
					}
				}
			}
			JOINT lCollar
			{
				OFFSET 3.470700 6.669187 -0.816635 
				CHANNELS 3 Yrotation Zrotation Xrotation
				JOINT lShldr
				{
					OFFSET 3.198488 0.000000 0.000000 
					CHANNELS 3 Zrotation Yrotation Xrotation
					JOINT lForeArm
					{
						OFFSET 10.139888 0.000000 0.000000 
						CHANNELS 3 Yrotation Zrotation Xrotation
						JOINT lHand
						{
							OFFSET 8.370511 0.000000 0.000000 
							CHANNELS 3 Zrotation Yrotation Xrotation
							End Site
							{
								OFFSET 4.083176 0.000000 0.000000 
							}
						}
					}
				}
			}
			JOINT rCollar
			{
				OFFSET -3.470700 6.669187 -0.816635 
				CHANNELS 3 Yrotation Zrotation Xrotation
				JOINT rShldr
				{
					OFFSET -3.198488 0.000000 0.000000 
					CHANNELS 3 Zrotation Yrotation Xrotation
					JOINT rForeArm
					{
						OFFSET -10.139888 0.000000 0.000000 
						CHANNELS 3 Yrotation Zrotation Xrotation
						JOINT rHand
						{
							OFFSET -8.370511 0.000000 0.000000 
							CHANNELS 3 Zrotation Yrotation Xrotation
							End Site
							{
								OFFSET -4.083176 0.000000 0.000000 
							}
						}
					}
				}
			}
		}
	}
	JOINT lThigh
	{
		OFFSET 5.308129 -1.633274 1.361059 
		CHANNELS 3 Xrotation Zrotation Yrotation
		JOINT lShin
		{
			OFFSET -2.041588 -20.007561 0.000000 
			CHANNELS 3 Xrotation Zrotation Yrotation
			JOINT lFoot
			{
				OFFSET 0.000000 -19.190928 -1.224953 
				CHANNELS 3 Xrotation Yrotation Zrotation
				End Site
				{
					OFFSET 0.000000 -2.449906 4.627600 
				}
			}
		}
	}
	JOINT rThigh
	{
		OFFSET -5.308129 -1.633274 1.361059 
		CHANNELS 3 Xrotation Zrotation Yrotation
		JOINT rShin
		{
			OFFSET 2.041588 -20.007561 0.000000 
			CHANNELS 3 Xrotation Zrotation Yrotation
			JOINT rFoot
			{
				OFFSET 0.000000 -19.190928 -1.224953 
				CHANNELS 3 Xrotation Yrotation Zrotation
				End Site
				{
					OFFSET 0.000000 -2.449906 4.627600 
				}
			}
		}
	}
}
MOTION
Frames: 15
Frame Time: 0.011111
22.511997 47.789703 -126.090500 7.999714 1.990897 -8.832737 17.246319 -5.653415 5.066524 -24.557203 -0.128870 1.952037 -11.415256 1.099081 -1.378882 19.912985 2.243284 -1.909297 -7.198545 -2.255300 -0.324897 -70.524429 -28.302265 -5.419096 -41.089291 5.118420 4.767532 8.524705 12.647240 -41.282604 5.113256 1.510366 0.237230 75.757347 8.714638 17.278706 51.335999 -8.006796 8.708388 -8.533279 -12.636986 46.644676 -18.114977 1.543029 3.504408 36.660515 -4.927155 -5.691545 -24.524939 -7.447340 -5.755605 -23.494442 -5.614662 0.921538 68.086746 1.749474 8.755285 -17.105715 3.729147 4.043424 
22.516289 47.897305 -125.284126 7.568155 2.564851 -8.782284 17.458511 -6.257200 4.516372 -24.469221 0.272856 1.849248 -10.466583 0.775920 -1.301762 18.634537 2.599083 -1.787592 -7.198545 -2.255300 -0.324897 -70.101234 -29.282383 0.166013 -42.442459 5.581420 5.259610 8.524705 12.647240 -37.474010 5.113256 1.510366 0.237230 75.882339 7.804581 16.686451 50.550396 -7.832281 8.378446 -8.533279 -12.636986 46.088039 -16.289186 0.605820 3.871287 36.065521 -4.965522 -5.621676 -25.943014 -5.036699 -4.588936 -24.771999 -6.044284 0.977587 67.219666 1.875514 8.684520 -17.928328 3.726883 4.049820 
22.566130 47.941204 -124.478432 7.098983 2.307765 -9.052340 17.771767 -5.775248 4.637409 -24.215500 0.195863 1.844486 -12.387286 -0.092635 -0.744751 21.993225 3.967687 -0.595461 -7.198545 -2.255300 -0.324897 -69.560593 -30.523638 4.945770 -43.514477 5.924159 5.646321 8.524705 12.647240 -34.671276 5.113256 1.510366 0.237230 76.092628 7.197875 15.040041 49.382030 -7.567877 7.912940 -8.533279 -12.636986 44.066555 -14.589696 0.498119 3.602162 35.727287 -4.995518 -5.581208 -26.796419 -4.769017 -4.430898 -25.695967 -5.516399 1.105115 66.469131 1.972931 8.621848 -19.077713 4.626432 4.388576 
22.563820 47.924038 -123.863838 7.063391 2.357796 -8.406878 18.199078 -5.610235 3.860811 -24.576960 0.369618 1.617910 -14.099409 0.798681 -0.695683 25.057611 2.551484 -0.501820 -7.198545 -2.255300 -0.324897 -69.116165 -31.837738 8.841833 -44.416710 6.208973 5.984135 8.524705 12.647240 -32.874401 5.113256 1.510366 0.237230 76.315010 6.474612 13.356271 48.299591 -7.299987 7.481193 -8.533279 -12.636986 42.191555 -13.595487 0.175152 3.174324 35.391476 -5.001392 -5.543875 -26.098257 -6.521092 -5.343302 -27.358305 -5.438422 0.874206 65.795357 2.032421 8.588415 -20.259716 6.141713 4.998384 
22.554247 47.918755 -123.197769 7.226207 2.585886 -8.000419 18.200701 -5.771511 3.287247 -24.938334 0.712144 1.465595 -12.705808 0.067200 -0.368719 23.348978 4.057235 0.278020 -7.198545 -2.255300 -0.324897 -68.778786 -33.206421 11.007973 -45.289391 6.463421 6.306639 8.524705 12.647240 -32.034557 5.113256 1.510366 0.237230 76.515709 5.582231 11.361886 47.252289 -7.030354 7.078186 -8.533279 -12.636986 39.886864 -12.738269 -0.205248 3.064909 35.044319 -5.026674 -5.481582 -25.685472 -7.730241 -5.964880 -29.170689 -5.418674 0.968794 64.966309 2.158374 8.525177 -21.343506 7.080038 5.444082 
22.554577 47.893009 -122.484489 7.396297 2.276625 -7.631911 18.085840 -5.277257 2.961387 -25.055758 0.940008 1.321044 -12.302951 0.093601 -0.308316 22.925858 3.844870 0.342757 -7.198545 -2.255300 -0.324897 -68.287270 -34.495415 13.177204 -46.609634 6.842049 6.815005 8.524705 12.647240 -30.491587 5.113256 1.510366 0.237230 76.673012 4.822842 9.277154 46.238537 -6.747821 6.677600 -8.533279 -12.636986 37.474751 -11.799162 -0.029857 3.029208 34.477787 -5.060016 -5.431488 -25.721306 -8.299287 -6.244208 -30.645655 -4.822887 0.649914 63.824219 2.276502 8.440655 -22.359627 6.753857 5.331182 
22.564808 47.851421 -121.751411 7.257942 2.274428 -7.231561 18.232990 -5.035662 2.358494 -24.802246 1.185661 1.132453 -13.104571 0.710314 -0.434381 23.965897 2.320836 -0.042318 -7.198545 -2.255300 -0.324897 -67.471794 -35.800613 16.312937 -48.318436 7.288868 7.475941 8.524705 12.647240 -27.923229 5.113256 1.510366 0.237230 76.625099 4.435009 7.680811 45.259579 -6.469417 6.313158 -8.533279 -12.636986 35.502098 -10.278188 -0.263735 2.956962 33.623600 -5.113787 -5.303633 -25.623270 -9.122163 -6.678921 -31.787321 -4.715469 0.261073 62.428207 2.442566 8.323366 -22.899130 6.267368 5.138213 
22.552267 47.840530 -121.033844 7.072167 2.801366 -6.845765 18.423229 -5.528793 1.551773 -24.402330 1.635872 0.947420 -12.416696 -0.219135 -0.135546 22.525694 3.692317 0.570562 -7.198545 -2.255300 -0.324897 -66.648621 -37.600872 18.728125 -49.442627 7.567774 7.926314 8.524705 12.647240 -26.272839 5.113256 1.510366 0.237230 76.507782 4.432735 5.710990 44.109787 -6.126969 5.879013 -8.533279 -12.636986 33.011864 -8.509499 -1.014937 2.914196 32.534634 -5.209958 -5.174819 -25.548933 -9.707498 -6.969383 -33.053635 -5.165258 0.168320 60.864807 2.618680 8.204213 -23.234587 6.415710 5.215025 
22.516621 47.873871 -120.322220 7.148241 3.077087 -6.385749 18.380129 -5.770453 0.876015 -24.256378 2.063941 0.780631 -12.490851 -0.043078 -0.061439 22.737129 3.355173 0.705058 -7.198545 -2.255300 -0.324897 -65.976974 -39.284157 20.505381 -50.308609 7.768750 8.280626 8.524705 12.647240 -25.169321 5.113256 1.510366 0.237230 76.594131 4.166740 2.987126 43.014328 -5.776572 5.469846 -8.533279 -12.636986 30.189600 -7.005016 -1.376281 3.018713 31.241453 -5.262767 -5.025434 -25.029684 -10.336834 -7.252162 -34.421322 -5.302203 0.229866 59.124699 2.814219 8.057679 -23.450052 6.775588 5.394428 
22.507048 47.936913 -119.587479 7.182171 2.779573 -5.949130 18.427292 -5.214485 0.501435 -24.393467 2.193671 0.621459 -12.596113 0.103654 -0.030181 23.306858 2.890124 0.716841 -7.198545 -2.255300 -0.324897 -65.375015 -40.759895 21.895369 -51.041302 7.933383 8.579634 8.524705 12.647240 -24.056044 5.113256 1.510366 0.237230 76.783257 3.381194 0.352889 42.269943 -5.538568 5.208679 -8.533279 -12.636986 27.845846 -5.458678 -1.151960 3.100573 29.841526 -5.356042 -4.836224 -24.432373 -10.694368 -7.360596 -35.344406 -4.950256 0.115729 57.237041 3.029194 7.874933 -23.258961 6.885338 5.435750 
22.507048 47.985104 -118.829636 7.032505 2.755693 -5.494743 18.619055 -5.001330 -0.000039 -24.472158 2.449490 0.466183 -12.696660 -0.988307 0.189198 23.587749 4.039443 1.124318 -7.198545 -2.255300 -0.324897 -64.719337 -42.090580 23.243267 -52.089329 8.149897 9.008248 8.524705 12.647240 -22.698622 5.113256 1.510366 0.237230 76.909775 2.441938 -1.586276 41.822105 -5.387993 5.038853 -8.533279 -12.636986 26.214993 -3.949237 -1.258460 3.025563 29.040516 -5.404935 -4.727890 -24.528057 -10.672140 -7.370642 -36.128689 -4.979613 -0.017049 55.405666 3.224388 7.718952 -23.385010 7.070196 5.519504 
22.480972 47.980812 -118.068184 6.982026 3.349535 -5.089766 18.605940 -5.639071 -0.687147 -24.385105 2.890352 0.326212 -13.528367 -3.013537 0.590617 24.746161 6.570252 1.930532 -7.198545 -2.255300 -0.324897 -63.917656 -43.323318 24.626070 -53.488373 8.417395 9.584515 8.524705 12.647240 -21.165417 5.113256 1.510366 0.237230 77.142609 1.611832 -3.735143 41.506500 -5.278635 4.929877 -8.533279 -12.636986 24.339993 -2.332963 -1.942096 3.040676 27.928253 -5.463282 -4.583491 -24.341442 -10.835675 -7.429627 -37.203827 -5.526944 0.116680 53.298401 3.449202 7.519875 -23.415787 7.805482 5.877863 
22.450605 47.656349 -117.329475 7.036498 3.656066 -4.744081 18.561501 -5.931299 -1.171699 -24.336903 3.176913 0.214266 -11.993307 -1.271061 0.260534 22.352243 4.255779 1.244023 -7.198545 -2.255300 -0.324897 -63.128857 -44.787373 25.584566 -54.479362 8.588052 10.001648 8.524705 12.647240 -20.013071 5.113256 1.510366 0.237230 77.317581 0.962300 -6.119002 41.151016 -5.157057 4.803919 -8.533279 -12.636986 22.425928 -0.943199 -2.308148 3.281293 26.924885 -5.506677 -4.474677 -23.839252 -11.522705 -7.726508 -38.647438 -5.292302 1.304171 51.268009 3.644692 7.316397 -23.556583 7.502596 5.744124 
22.454567 47.873535 -116.569656 7.127052 3.245522 -4.229698 18.572315 -5.200147 -1.485713 -24.376024 3.158750 0.066437 -11.688739 -0.258830 0.282415 22.197533 3.303977 1.346401 -7.198545 -2.255300 -0.324897 -62.316875 -46.239876 26.383396 -55.345463 8.725248 10.372478 8.524705 12.647240 -18.938856 5.113256 1.510366 0.237230 77.406898 0.382467 -7.974523 40.725155 -5.011412 4.656898 -8.533279 -12.636986 21.341940 0.448724 -1.864371 3.313859 25.685890 -5.578882 -4.281536 -23.161594 -12.212899 -7.967019 -38.889759 -5.106857 0.694820 48.488228 3.925743 7.013287 -22.974024 7.287454 5.619894 
22.464138 47.966618 -115.817108 7.275330 2.644463 -3.669366 18.498516 -4.227538 -1.691408 -24.434111 2.895490 -0.087423 -11.486252 -0.178956 0.187822 21.798077 2.981899 1.103600 -7.198545 -2.255300 -0.324897 -61.347065 -47.473976 27.201389 -56.457058 8.885840 10.849277 8.524705 12.647240 -17.757214 5.113256 1.510366 0.237230 77.716873 -0.528004 -9.219908 40.562595 -4.946678 4.587591 -8.533279 -12.636986 20.863428 1.676473 -1.208394 3.171431 24.596785 -5.628186 -4.125055 -22.805002 -12.650437 -8.124230 -39.152901 -4.628501 0.375386 45.703747 4.179446 6.716338 -22.626011 6.080453 5.055295 
